<svg width="360" height="396" viewBox="0 0 360 396" fill="none" xmlns="http://www.w3.org/2000/svg">
<path d="M87.5 176L-2.5 253L-15 0H364L369.5 396C319.833 345.833 210 235.3 168 194.5C126 153.7 94.5 169 87.5 176Z" fill="url(#paint0_linear_362_243)"/>
<path d="M58.807 90.447H64.097V93H55.587V76.946H58.807V90.447ZM77.9886 86.353C77.9886 86.813 77.958 87.227 77.8966 87.595H68.5816C68.6583 88.515 68.9803 89.2357 69.5476 89.757C70.115 90.2783 70.8126 90.539 71.6406 90.539C72.8366 90.539 73.6876 90.0253 74.1936 88.998H77.6666C77.2986 90.2247 76.5933 91.2367 75.5506 92.034C74.508 92.816 73.2276 93.207 71.7096 93.207C70.483 93.207 69.379 92.9387 68.3976 92.402C67.4316 91.85 66.6726 91.0757 66.1206 90.079C65.584 89.0823 65.3156 87.9323 65.3156 86.629C65.3156 85.3103 65.584 84.1527 66.1206 83.156C66.6573 82.1593 67.4086 81.3927 68.3746 80.856C69.3406 80.3193 70.4523 80.051 71.7096 80.051C72.921 80.051 74.002 80.3117 74.9526 80.833C75.9186 81.3543 76.6623 82.098 77.1836 83.064C77.7203 84.0147 77.9886 85.111 77.9886 86.353ZM74.6536 85.433C74.6383 84.605 74.3393 83.9457 73.7566 83.455C73.174 82.949 72.461 82.696 71.6176 82.696C70.8203 82.696 70.1456 82.9413 69.5936 83.432C69.057 83.9073 68.7273 84.5743 68.6046 85.433H74.6536ZM84.088 82.903V89.067C84.088 89.4963 84.1876 89.8107 84.387 90.01C84.6016 90.194 84.9543 90.286 85.445 90.286H86.94V93H84.916C82.202 93 80.845 91.6813 80.845 89.044V82.903H79.327V80.258H80.845V77.107H84.088V80.258H86.94V82.903H84.088ZM89.8999 76.946H93.2809L90.7969 82.742H88.5889L89.8999 76.946ZM100.466 93.207C99.4233 93.207 98.4879 93.023 97.6599 92.655C96.8319 92.2717 96.1726 91.758 95.6819 91.114C95.2066 90.47 94.9459 89.757 94.8999 88.975H98.1429C98.2043 89.4657 98.4419 89.872 98.8559 90.194C99.2853 90.516 99.8143 90.677 100.443 90.677C101.056 90.677 101.532 90.5543 101.869 90.309C102.222 90.0637 102.398 89.7493 102.398 89.366C102.398 88.952 102.183 88.6453 101.754 88.446C101.34 88.2313 100.673 88.0013 99.7529 87.756C98.8023 87.526 98.0203 87.2883 97.4069 87.043C96.8089 86.7977 96.2876 86.422 95.8429 85.916C95.4136 85.41 95.1989 84.7277 95.1989 83.869C95.1989 83.1637 95.3983 82.5197 95.7969 81.937C96.2109 81.3543 96.7936 80.8943 97.5449 80.557C98.3116 80.2197 99.2086 80.051 100.236 80.051C101.754 80.051 102.965 80.4343 103.87 81.201C104.775 81.9523 105.273 82.972 105.365 84.26H102.283C102.237 83.754 102.022 83.3553 101.639 83.064C101.271 82.7573 100.773 82.604 100.144 82.604C99.5613 82.604 99.1089 82.7113 98.7869 82.926C98.4803 83.1407 98.3269 83.4397 98.3269 83.823C98.3269 84.2523 98.5416 84.582 98.9709 84.812C99.4003 85.0267 100.067 85.249 100.972 85.479C101.892 85.709 102.651 85.9467 103.249 86.192C103.847 86.4373 104.361 86.8207 104.79 87.342C105.235 87.848 105.465 88.5227 105.48 89.366C105.48 90.102 105.273 90.7613 104.859 91.344C104.46 91.9267 103.878 92.3867 103.111 92.724C102.36 93.046 101.478 93.207 100.466 93.207ZM112.776 86.629C112.776 85.3103 113.044 84.1603 113.581 83.179C114.117 82.1823 114.861 81.4157 115.812 80.879C116.762 80.327 117.851 80.051 119.078 80.051C120.657 80.051 121.96 80.4497 122.988 81.247C124.03 82.029 124.728 83.133 125.081 84.559H121.608C121.424 84.007 121.109 83.5777 120.665 83.271C120.235 82.949 119.699 82.788 119.055 82.788C118.135 82.788 117.406 83.1253 116.87 83.8C116.333 84.4593 116.065 85.4023 116.065 86.629C116.065 87.8403 116.333 88.7833 116.87 89.458C117.406 90.1173 118.135 90.447 119.055 90.447C120.358 90.447 121.209 89.8643 121.608 88.699H125.081C124.728 90.079 124.03 91.1753 122.988 91.988C121.945 92.8007 120.642 93.207 119.078 93.207C117.851 93.207 116.762 92.9387 115.812 92.402C114.861 91.85 114.117 91.0833 113.581 90.102C113.044 89.1053 112.776 87.9477 112.776 86.629ZM130.66 82.236C131.074 81.5613 131.61 81.0323 132.27 80.649C132.944 80.2657 133.711 80.074 134.57 80.074V83.455H133.719C132.707 83.455 131.94 83.6927 131.419 84.168C130.913 84.6433 130.66 85.4713 130.66 86.652V93H127.44V80.258H130.66V82.236ZM148.583 86.353C148.583 86.813 148.553 87.227 148.491 87.595H139.176C139.253 88.515 139.575 89.2357 140.142 89.757C140.71 90.2783 141.407 90.539 142.235 90.539C143.431 90.539 144.282 90.0253 144.788 88.998H148.261C147.893 90.2247 147.188 91.2367 146.145 92.034C145.103 92.816 143.822 93.207 142.304 93.207C141.078 93.207 139.974 92.9387 138.992 92.402C138.026 91.85 137.267 91.0757 136.715 90.079C136.179 89.0823 135.91 87.9323 135.91 86.629C135.91 85.3103 136.179 84.1527 136.715 83.156C137.252 82.1593 138.003 81.3927 138.969 80.856C139.935 80.3193 141.047 80.051 142.304 80.051C143.516 80.051 144.597 80.3117 145.547 80.833C146.513 81.3543 147.257 82.098 147.778 83.064C148.315 84.0147 148.583 85.111 148.583 86.353ZM145.248 85.433C145.233 84.605 144.934 83.9457 144.351 83.455C143.769 82.949 143.056 82.696 142.212 82.696C141.415 82.696 140.74 82.9413 140.188 83.432C139.652 83.9073 139.322 84.5743 139.199 85.433H145.248ZM150.106 86.583C150.106 85.295 150.359 84.1527 150.865 83.156C151.386 82.1593 152.084 81.3927 152.958 80.856C153.847 80.3193 154.836 80.051 155.925 80.051C156.875 80.051 157.703 80.2427 158.409 80.626C159.129 81.0093 159.704 81.4923 160.134 82.075V80.258H163.377V93H160.134V91.137C159.72 91.735 159.145 92.2333 158.409 92.632C157.688 93.0153 156.852 93.207 155.902 93.207C154.828 93.207 153.847 92.931 152.958 92.379C152.084 91.827 151.386 91.0527 150.865 90.056C150.359 89.044 150.106 87.8863 150.106 86.583ZM160.134 86.629C160.134 85.847 159.98 85.18 159.674 84.628C159.367 84.0607 158.953 83.6313 158.432 83.34C157.91 83.0333 157.351 82.88 156.753 82.88C156.155 82.88 155.603 83.0257 155.097 83.317C154.591 83.6083 154.177 84.0377 153.855 84.605C153.548 85.157 153.395 85.8163 153.395 86.583C153.395 87.3497 153.548 88.0243 153.855 88.607C154.177 89.1743 154.591 89.6113 155.097 89.918C155.618 90.2247 156.17 90.378 156.753 90.378C157.351 90.378 157.91 90.2323 158.432 89.941C158.953 89.6343 159.367 89.205 159.674 88.653C159.98 88.0857 160.134 87.411 160.134 86.629ZM170.271 82.903V89.067C170.271 89.4963 170.37 89.8107 170.57 90.01C170.784 90.194 171.137 90.286 171.628 90.286H173.123V93H171.099C168.385 93 167.028 91.6813 167.028 89.044V82.903H165.51V80.258H167.028V77.107H170.271V80.258H173.123V82.903H170.271ZM187.284 86.353C187.284 86.813 187.253 87.227 187.192 87.595H177.877C177.953 88.515 178.275 89.2357 178.843 89.757C179.41 90.2783 180.108 90.539 180.936 90.539C182.132 90.539 182.983 90.0253 183.489 88.998H186.962C186.594 90.2247 185.888 91.2367 184.846 92.034C183.803 92.816 182.523 93.207 181.005 93.207C179.778 93.207 178.674 92.9387 177.693 92.402C176.727 91.85 175.968 91.0757 175.416 90.079C174.879 89.0823 174.611 87.9323 174.611 86.629C174.611 85.3103 174.879 84.1527 175.416 83.156C175.952 82.1593 176.704 81.3927 177.67 80.856C178.636 80.3193 179.747 80.051 181.005 80.051C182.216 80.051 183.297 80.3117 184.248 80.833C185.214 81.3543 185.957 82.098 186.479 83.064C187.015 84.0147 187.284 85.111 187.284 86.353ZM183.949 85.433C183.933 84.605 183.634 83.9457 183.052 83.455C182.469 82.949 181.756 82.696 180.913 82.696C180.115 82.696 179.441 82.9413 178.889 83.432C178.352 83.9073 178.022 84.5743 177.9 85.433H183.949ZM54.759 112.583C54.759 111.295 55.012 110.153 55.518 109.156C56.0393 108.159 56.737 107.393 57.611 106.856C58.5003 106.319 59.4893 106.051 60.578 106.051C61.5287 106.051 62.3567 106.243 63.062 106.626C63.7827 107.009 64.3577 107.492 64.787 108.075V106.258H68.03V119H64.787V117.137C64.373 117.735 63.798 118.233 63.062 118.632C62.3413 119.015 61.5057 119.207 60.555 119.207C59.4817 119.207 58.5003 118.931 57.611 118.379C56.737 117.827 56.0393 117.053 55.518 116.056C55.012 115.044 54.759 113.886 54.759 112.583ZM64.787 112.629C64.787 111.847 64.6337 111.18 64.327 110.628C64.0203 110.061 63.6063 109.631 63.085 109.34C62.5637 109.033 62.004 108.88 61.406 108.88C60.808 108.88 60.256 109.026 59.75 109.317C59.244 109.608 58.83 110.038 58.508 110.605C58.2013 111.157 58.048 111.816 58.048 112.583C58.048 113.35 58.2013 114.024 58.508 114.607C58.83 115.174 59.244 115.611 59.75 115.918C60.2713 116.225 60.8233 116.378 61.406 116.378C62.004 116.378 62.5637 116.232 63.085 115.941C63.6063 115.634 64.0203 115.205 64.327 114.653C64.6337 114.086 64.787 113.411 64.787 112.629ZM88.3624 107.914C88.3624 108.773 88.1554 109.578 87.7414 110.329C87.3427 111.08 86.7064 111.686 85.8324 112.146C84.9737 112.606 83.885 112.836 82.5664 112.836H79.8754V119H76.6554V102.946H82.5664C83.8084 102.946 84.8664 103.161 85.7404 103.59C86.6144 104.019 87.266 104.61 87.6954 105.361C88.14 106.112 88.3624 106.963 88.3624 107.914ZM82.4284 110.237C83.3177 110.237 83.977 110.038 84.4064 109.639C84.8357 109.225 85.0504 108.65 85.0504 107.914C85.0504 106.35 84.1764 105.568 82.4284 105.568H79.8754V110.237H82.4284ZM89.8205 112.583C89.8205 111.295 90.0735 110.153 90.5795 109.156C91.1009 108.159 91.7985 107.393 92.6725 106.856C93.5619 106.319 94.5509 106.051 95.6395 106.051C96.5902 106.051 97.4182 106.243 98.1235 106.626C98.8442 107.009 99.4192 107.492 99.8485 108.075V106.258H103.092V119H99.8485V117.137C99.4345 117.735 98.8595 118.233 98.1235 118.632C97.4029 119.015 96.5672 119.207 95.6165 119.207C94.5432 119.207 93.5619 118.931 92.6725 118.379C91.7985 117.827 91.1009 117.053 90.5795 116.056C90.0735 115.044 89.8205 113.886 89.8205 112.583ZM99.8485 112.629C99.8485 111.847 99.6952 111.18 99.3885 110.628C99.0819 110.061 98.6679 109.631 98.1465 109.34C97.6252 109.033 97.0655 108.88 96.4675 108.88C95.8695 108.88 95.3175 109.026 94.8115 109.317C94.3055 109.608 93.8915 110.038 93.5695 110.605C93.2629 111.157 93.1095 111.816 93.1095 112.583C93.1095 113.35 93.2629 114.024 93.5695 114.607C93.8915 115.174 94.3055 115.611 94.8115 115.918C95.3329 116.225 95.8849 116.378 96.4675 116.378C97.0655 116.378 97.6252 116.232 98.1465 115.941C98.6679 115.634 99.0819 115.205 99.3885 114.653C99.6952 114.086 99.8485 113.411 99.8485 112.629ZM123.9 106.258L120.174 119H116.701L114.378 110.099L112.055 119H108.559L104.81 106.258H108.076L110.33 115.964L112.768 106.258H116.172L118.564 115.941L120.818 106.258H123.9ZM137.35 107.914C137.35 108.773 137.143 109.578 136.729 110.329C136.33 111.08 135.694 111.686 134.82 112.146C133.961 112.606 132.872 112.836 131.554 112.836H128.863V119H125.643V102.946H131.554C132.796 102.946 133.854 103.161 134.728 103.59C135.602 104.019 136.253 104.61 136.683 105.361C137.127 106.112 137.35 106.963 137.35 107.914ZM131.416 110.237C132.305 110.237 132.964 110.038 133.394 109.639C133.823 109.225 134.038 108.65 134.038 107.914C134.038 106.35 133.164 105.568 131.416 105.568H128.863V110.237H131.416ZM138.808 112.583C138.808 111.295 139.061 110.153 139.567 109.156C140.088 108.159 140.786 107.393 141.66 106.856C142.549 106.319 143.538 106.051 144.627 106.051C145.577 106.051 146.405 106.243 147.111 106.626C147.831 107.009 148.406 107.492 148.836 108.075V106.258H152.079V119H148.836V117.137C148.422 117.735 147.847 118.233 147.111 118.632C146.39 119.015 145.554 119.207 144.604 119.207C143.53 119.207 142.549 118.931 141.66 118.379C140.786 117.827 140.088 117.053 139.567 116.056C139.061 115.044 138.808 113.886 138.808 112.583ZM148.836 112.629C148.836 111.847 148.682 111.18 148.376 110.628C148.069 110.061 147.655 109.631 147.134 109.34C146.612 109.033 146.053 108.88 145.455 108.88C144.857 108.88 144.305 109.026 143.799 109.317C143.293 109.608 142.879 110.038 142.557 110.605C142.25 111.157 142.097 111.816 142.097 112.583C142.097 113.35 142.25 114.024 142.557 114.607C142.879 115.174 143.293 115.611 143.799 115.918C144.32 116.225 144.872 116.378 145.455 116.378C146.053 116.378 146.612 116.232 147.134 115.941C147.655 115.634 148.069 115.205 148.376 114.653C148.682 114.086 148.836 113.411 148.836 112.629ZM158.444 101.98V119H155.224V101.98H158.444ZM166.278 112.583C166.278 111.295 166.531 110.153 167.037 109.156C167.558 108.159 168.256 107.393 169.13 106.856C170.019 106.319 171.008 106.051 172.097 106.051C173.047 106.051 173.875 106.243 174.581 106.626C175.301 107.009 175.876 107.492 176.306 108.075V106.258H179.549V119H176.306V117.137C175.892 117.735 175.317 118.233 174.581 118.632C173.86 119.015 173.024 119.207 172.074 119.207C171 119.207 170.019 118.931 169.13 118.379C168.256 117.827 167.558 117.053 167.037 116.056C166.531 115.044 166.278 113.886 166.278 112.583ZM176.306 112.629C176.306 111.847 176.152 111.18 175.846 110.628C175.539 110.061 175.125 109.631 174.604 109.34C174.082 109.033 173.523 108.88 172.925 108.88C172.327 108.88 171.775 109.026 171.269 109.317C170.763 109.608 170.349 110.038 170.027 110.605C169.72 111.157 169.567 111.816 169.567 112.583C169.567 113.35 169.72 114.024 170.027 114.607C170.349 115.174 170.763 115.611 171.269 115.918C171.79 116.225 172.342 116.378 172.925 116.378C173.523 116.378 174.082 116.232 174.604 115.941C175.125 115.634 175.539 115.205 175.846 114.653C176.152 114.086 176.306 113.411 176.306 112.629ZM181.865 112.629C181.865 111.31 182.134 110.16 182.67 109.179C183.207 108.182 183.951 107.416 184.901 106.879C185.852 106.327 186.941 106.051 188.167 106.051C189.747 106.051 191.05 106.45 192.077 107.247C193.12 108.029 193.818 109.133 194.17 110.559H190.697C190.513 110.007 190.199 109.578 189.754 109.271C189.325 108.949 188.788 108.788 188.144 108.788C187.224 108.788 186.496 109.125 185.959 109.8C185.423 110.459 185.154 111.402 185.154 112.629C185.154 113.84 185.423 114.783 185.959 115.458C186.496 116.117 187.224 116.447 188.144 116.447C189.448 116.447 190.299 115.864 190.697 114.699H194.17C193.818 116.079 193.12 117.175 192.077 117.988C191.035 118.801 189.731 119.207 188.167 119.207C186.941 119.207 185.852 118.939 184.901 118.402C183.951 117.85 183.207 117.083 182.67 116.102C182.134 115.105 181.865 113.948 181.865 112.629ZM195.701 112.629C195.701 111.31 195.97 110.16 196.506 109.179C197.043 108.182 197.787 107.416 198.737 106.879C199.688 106.327 200.777 106.051 202.003 106.051C203.583 106.051 204.886 106.45 205.913 107.247C206.956 108.029 207.654 109.133 208.006 110.559H204.533C204.349 110.007 204.035 109.578 203.59 109.271C203.161 108.949 202.624 108.788 201.98 108.788C201.06 108.788 200.332 109.125 199.795 109.8C199.259 110.459 198.99 111.402 198.99 112.629C198.99 113.84 199.259 114.783 199.795 115.458C200.332 116.117 201.06 116.447 201.98 116.447C203.284 116.447 204.135 115.864 204.533 114.699H208.006C207.654 116.079 206.956 117.175 205.913 117.988C204.871 118.801 203.567 119.207 202.003 119.207C200.777 119.207 199.688 118.939 198.737 118.402C197.787 117.85 197.043 117.083 196.506 116.102C195.97 115.105 195.701 113.948 195.701 112.629ZM216.023 119.207C214.797 119.207 213.693 118.939 212.711 118.402C211.73 117.85 210.956 117.076 210.388 116.079C209.836 115.082 209.56 113.932 209.56 112.629C209.56 111.326 209.844 110.176 210.411 109.179C210.994 108.182 211.784 107.416 212.78 106.879C213.777 106.327 214.889 106.051 216.115 106.051C217.342 106.051 218.454 106.327 219.45 106.879C220.447 107.416 221.229 108.182 221.796 109.179C222.379 110.176 222.67 111.326 222.67 112.629C222.67 113.932 222.371 115.082 221.773 116.079C221.191 117.076 220.393 117.85 219.381 118.402C218.385 118.939 217.265 119.207 216.023 119.207ZM216.023 116.401C216.606 116.401 217.15 116.263 217.656 115.987C218.178 115.696 218.592 115.266 218.898 114.699C219.205 114.132 219.358 113.442 219.358 112.629C219.358 111.418 219.036 110.49 218.392 109.846C217.764 109.187 216.989 108.857 216.069 108.857C215.149 108.857 214.375 109.187 213.746 109.846C213.133 110.49 212.826 111.418 212.826 112.629C212.826 113.84 213.125 114.776 213.723 115.435C214.337 116.079 215.103 116.401 216.023 116.401ZM237.061 106.258V119H233.818V117.39C233.404 117.942 232.86 118.379 232.185 118.701C231.526 119.008 230.805 119.161 230.023 119.161C229.027 119.161 228.145 118.954 227.378 118.54C226.612 118.111 226.006 117.49 225.561 116.677C225.132 115.849 224.917 114.868 224.917 113.733V106.258H228.137V113.273C228.137 114.285 228.39 115.067 228.896 115.619C229.402 116.156 230.092 116.424 230.966 116.424C231.856 116.424 232.553 116.156 233.059 115.619C233.565 115.067 233.818 114.285 233.818 113.273V106.258H237.061ZM247.299 106.074C248.817 106.074 250.044 106.557 250.979 107.523C251.915 108.474 252.382 109.808 252.382 111.525V119H249.162V111.962C249.162 110.95 248.909 110.176 248.403 109.639C247.897 109.087 247.207 108.811 246.333 108.811C245.444 108.811 244.739 109.087 244.217 109.639C243.711 110.176 243.458 110.95 243.458 111.962V119H240.238V106.258H243.458V107.845C243.888 107.293 244.432 106.864 245.091 106.557C245.766 106.235 246.502 106.074 247.299 106.074ZM259.193 108.903V115.067C259.193 115.496 259.293 115.811 259.492 116.01C259.707 116.194 260.06 116.286 260.55 116.286H262.045V119H260.021C257.307 119 255.95 117.681 255.95 115.044V108.903H254.432V106.258H255.95V103.107H259.193V106.258H262.045V108.903H259.193ZM265.787 119.161C265.205 119.161 264.722 118.985 264.338 118.632C263.97 118.264 263.786 117.812 263.786 117.275C263.786 116.738 263.97 116.294 264.338 115.941C264.722 115.573 265.205 115.389 265.787 115.389C266.355 115.389 266.822 115.573 267.19 115.941C267.558 116.294 267.742 116.738 267.742 117.275C267.742 117.812 267.558 118.264 267.19 118.632C266.822 118.985 266.355 119.161 265.787 119.161Z" fill="white"/>
<ellipse cx="64.5" cy="-48" rx="97.5" ry="96" fill="#FFA500"/>
<ellipse cx="406" cy="208" rx="104" ry="105" fill="#FF6464" fill-opacity="0.37"/>
<defs>
<linearGradient id="paint0_linear_362_243" x1="177.25" y1="0" x2="83.5" y2="305.5" gradientUnits="userSpaceOnUse">
<stop offset="0.161458" stop-color="#FFBD66"/>
<stop offset="0.671875" stop-color="#FFA500"/>
<stop offset="1" stop-color="#FF6464"/>
</linearGradient>
</defs>
</svg>
